<?xml version="1.0" standalone="no"?>
<!DOCTYPE svg PUBLIC "-//W3C//DTD SVG 20010904//EN"
 "http://www.w3.org/TR/2001/REC-SVG-20010904/DTD/svg10.dtd">
<svg version="1.0" xmlns="http://www.w3.org/2000/svg"
 width="400.000000pt" height="400.000000pt" viewBox="0 0 400.000000 400.000000"
 preserveAspectRatio="xMidYMid meet">
<metadata>
Created by potrace 1.14, written by Peter Selinger 2001-2017
</metadata>
<g transform="translate(0.000000,400.000000) scale(0.100000,-0.100000)"
fill="#000000" stroke="none">
<path d="M3083 3985 c0 -8 8 -15 18 -15 9 0 19 7 23 15 4 11 -1 15 -18 15 -13
0 -23 -6 -23 -15z"/>
<path d="M3139 3970 c-19 -16 -41 -30 -49 -30 -12 -1 -12 -3 3 -14 17 -13 17
-14 0 -34 -10 -11 -30 -28 -46 -37 -22 -14 -26 -15 -22 -3 3 9 17 21 30 28 26
14 41 40 23 40 -14 0 -108 -96 -108 -111 0 -5 5 -7 12 -3 7 4 8 3 4 -5 -4 -6
-11 -9 -16 -6 -11 7 -57 -63 -66 -102 -4 -15 -10 -30 -13 -33 -4 -3 -15 -31
-24 -63 -10 -32 -34 -92 -54 -134 -19 -41 -36 -80 -37 -87 -1 -6 -8 -21 -14
-33 -7 -13 -10 -23 -8 -23 3 0 -2 -19 -10 -42 -9 -24 -17 -49 -18 -56 -1 -7
-15 -25 -32 -40 -16 -16 -36 -38 -44 -51 -15 -22 -80 -75 -67 -54 7 11 -73 41
-133 50 -19 3 -42 8 -50 12 -8 4 -50 7 -92 7 -43 -1 -78 2 -78 7 0 4 -9 7 -19
7 -11 0 -23 5 -26 10 -5 8 -11 7 -21 -1 -12 -10 -15 -10 -12 2 2 9 -7 15 -27
17 -16 2 -33 9 -37 15 -7 11 39 57 57 57 6 0 22 14 37 30 16 18 32 28 41 24 8
-3 18 -1 21 4 3 5 -11 13 -32 18 -86 18 -157 3 -255 -56 -48 -28 -86 -45 -91
-40 -6 6 -15 2 -23 -8 -8 -9 -11 -11 -8 -4 5 10 -5 12 -50 7 -66 -6 -145 -25
-145 -34 0 -3 -14 -7 -31 -7 -17 -1 -34 -5 -38 -10 -3 -5 -19 -10 -36 -12 -16
-2 -33 -8 -36 -14 -3 -5 -10 -10 -15 -9 -29 1 -55 -13 -49 -27 4 -12 3 -13
-10 -2 -12 10 -16 9 -21 -4 -3 -9 -10 -13 -15 -10 -5 3 -9 0 -9 -6 0 -6 -5 -8
-10 -5 -5 3 -10 3 -10 -2 0 -4 -14 -16 -31 -25 -18 -11 -27 -22 -23 -29 4 -8
3 -9 -5 -5 -6 4 -14 0 -17 -8 -3 -9 -11 -16 -16 -16 -5 0 -19 -10 -30 -22 -11
-13 -17 -17 -13 -10 7 14 -21 17 -30 2 -4 -7 -11 -6 -19 2 -12 13 -68 158 -73
192 -5 29 -110 283 -151 364 -39 77 -67 102 -155 142 -26 11 -50 27 -54 35 -3
8 -9 13 -13 10 -4 -3 -10 2 -14 10 -3 8 -1 15 5 15 6 0 7 6 2 13 -11 18 -12
37 -2 37 5 0 9 -8 9 -17 0 -9 3 -13 7 -10 3 4 26 -14 50 -39 25 -25 52 -44 61
-42 14 3 14 5 -1 20 -9 9 -17 19 -17 22 0 19 -105 103 -122 98 -5 -1 -8 2 -8
6 0 5 -6 9 -12 10 -84 8 -119 9 -124 1 -3 -5 -14 -9 -24 -9 -10 0 -29 -4 -42
-9 -13 -5 -27 -9 -31 -9 -4 -1 -15 -8 -23 -17 -9 -8 -22 -15 -30 -15 -8 0 -12
-4 -9 -10 3 -5 0 -10 -7 -10 -8 0 -28 -13 -45 -29 -23 -21 -34 -26 -43 -17 -8
8 -10 7 -5 -5 4 -10 1 -20 -6 -25 -8 -5 -10 -3 -4 7 7 11 6 12 -7 2 -8 -7 -18
-10 -22 -6 -4 4 -4 0 0 -10 4 -12 1 -17 -11 -17 -9 0 -14 4 -10 9 3 5 1 12 -4
15 -11 7 -9 -13 3 -32 5 -9 1 -15 -13 -19 -11 -3 -19 -9 -16 -13 3 -5 -6 -7
-20 -5 -16 1 -24 -2 -22 -9 3 -6 10 -10 16 -8 16 3 14 -3 -6 -19 -9 -8 -14 -9
-10 -3 4 7 -2 14 -13 17 -17 4 -18 2 -9 -14 7 -13 6 -19 -1 -19 -6 0 -9 -4 -6
-9 3 -5 -1 -12 -10 -15 -8 -3 -12 -11 -8 -17 4 -8 3 -9 -4 -5 -7 4 -12 2 -12
-3 0 -6 -5 -11 -11 -11 -6 0 1 14 15 31 14 17 26 36 25 42 0 8 -2 8 -6 -1 -2
-6 -9 -10 -14 -7 -5 4 -6 -2 -2 -11 5 -13 3 -15 -8 -9 -8 4 -11 5 -7 1 9 -11
-14 -35 -27 -28 -5 3 -2 -3 7 -14 17 -20 9 -54 -14 -54 -7 0 -6 5 2 15 9 11 9
15 1 15 -7 0 -9 5 -5 12 4 6 3 8 -3 5 -6 -4 -9 -22 -6 -42 2 -21 -1 -35 -7
-35 -6 0 -8 5 -5 10 3 6 1 10 -5 10 -6 0 -8 -11 -6 -26 3 -16 0 -27 -10 -31
-7 -3 -12 -9 -9 -13 3 -5 1 -11 -5 -15 -14 -9 -14 -1201 1 -1210 6 -4 8 -13 5
-21 -3 -8 -2 -14 3 -14 7 0 35 -51 32 -58 -1 -1 5 -10 14 -19 9 -8 14 -22 11
-30 -3 -8 -2 -11 4 -8 5 3 14 -4 20 -16 6 -11 19 -30 28 -41 9 -11 25 -29 35
-41 10 -12 34 -38 52 -59 19 -20 36 -45 38 -57 2 -11 11 -29 21 -40 16 -17
190 -108 238 -124 17 -6 19 -22 5 -44 -5 -7 -4 -13 1 -13 6 0 15 -13 21 -30 5
-16 17 -30 26 -30 20 0 85 -64 85 -85 0 -8 7 -15 15 -15 8 0 15 -4 15 -10 0
-13 53 -13 67 1 8 8 13 7 18 -2 5 -7 4 -10 -2 -6 -6 4 -17 -1 -25 -11 -16 -18
-49 -78 -48 -87 0 -3 -2 -27 -6 -55 l-7 -50 -44 4 c-46 3 -175 -29 -181 -45
-2 -5 -9 -9 -16 -9 -7 0 -30 -16 -52 -35 -38 -34 -38 -35 -7 -18 18 10 33 21
33 26 0 4 8 7 19 7 10 0 24 7 31 15 7 9 15 13 18 11 2 -3 14 0 25 6 26 14 138
18 154 6 8 -6 8 -19 2 -43 -6 -19 -9 -42 -7 -51 2 -9 -4 -20 -12 -24 -23 -13
-54 -23 -62 -22 -5 1 -8 -7 -8 -19 0 -15 -5 -19 -16 -15 -9 3 -12 2 -9 -5 4
-6 -1 -17 -11 -26 -11 -8 -3 -6 16 6 63 37 104 53 108 41 2 -5 9 -7 15 -3 7 4
6 -1 -2 -10 -11 -13 -11 -17 -1 -17 8 0 11 -3 7 -6 -3 -3 7 -17 24 -31 16 -14
29 -33 29 -44 0 -17 11 -24 34 -20 5 1 6 -6 2 -15 -5 -12 -2 -15 10 -10 15 6
15 4 3 -11 -7 -10 -10 -15 -5 -11 5 4 15 0 23 -8 8 -8 19 -12 24 -8 5 3 9 2 8
-3 -4 -21 3 -31 23 -36 19 -5 20 -8 7 -23 -12 -15 -12 -17 0 -9 10 6 13 4 9
-6 -4 -10 1 -15 13 -15 16 0 17 2 3 17 -13 14 -13 18 1 29 13 11 14 10 9 -5
-5 -13 -4 -16 5 -11 6 4 11 4 10 -1 -3 -19 2 -31 17 -37 13 -5 14 -4 6 7 -9
10 -8 14 3 14 8 0 15 -5 15 -11 0 -6 20 -12 44 -14 67 -4 84 -9 108 -31 12
-12 32 -21 45 -21 14 0 21 -4 18 -10 -4 -6 -3 -10 2 -9 34 6 48 -3 49 -31 1
-29 1 -30 -17 -9 -16 19 -18 19 -23 2 -2 -10 -7 -34 -10 -53 -9 -59 -14 -78
-25 -99 -12 -22 -4 -76 15 -106 7 -11 15 -42 18 -68 3 -26 10 -56 16 -66 5
-10 17 -41 26 -67 9 -27 25 -68 37 -92 l21 -42 62 0 c35 0 66 4 69 10 3 5 45
29 93 53 48 24 107 55 132 69 52 27 140 54 215 63 42 5 116 35 185 75 8 5 49
21 90 36 41 15 125 46 185 69 91 35 135 49 225 70 3 1 25 5 50 9 25 4 54 9 65
11 11 2 24 4 29 4 6 1 5 6 -2 13 -7 7 -12 15 -12 18 0 7 115 3 148 -5 18 -4
22 -2 16 7 -6 10 -5 10 7 1 8 -6 25 -13 39 -15 14 -1 27 -6 30 -9 7 -9 172
-38 186 -32 17 6 24 55 11 72 -10 12 -9 13 2 6 10 -5 12 -4 7 3 -4 7 -9 22
-11 34 -7 36 -27 68 -38 61 -6 -3 -7 -1 -3 5 9 16 -63 77 -104 87 -3 1 -12 5
-20 8 -8 3 -31 8 -50 10 -36 3 -40 21 -5 22 27 2 55 15 55 27 0 5 -6 6 -12 3
-7 -4 -5 0 5 8 10 8 27 12 38 10 22 -6 49 17 83 69 15 24 20 25 49 16 18 -5
37 -10 44 -12 7 -1 15 -5 19 -8 9 -10 34 3 34 18 0 7 -6 17 -12 21 -7 4 -20
17 -28 27 -14 18 -14 19 7 5 25 -15 41 -7 24 13 -6 7 -25 29 -41 48 -35 41
-38 70 -10 77 11 3 17 9 14 14 -3 5 2 9 10 9 9 0 16 8 16 18 1 16 1 16 11 -1
11 -18 50 -17 73 2 7 6 16 8 19 4 4 -3 7 -1 7 5 0 7 6 12 13 12 20 0 87 70 94
98 3 14 1 45 -5 71 -10 44 -9 48 24 99 20 30 36 62 37 72 1 10 7 16 14 13 14
-6 43 14 43 28 0 5 -12 15 -27 23 l-28 15 25 2 c14 1 33 2 43 2 9 0 17 4 17 8
0 5 6 9 13 9 7 0 46 11 87 25 41 14 80 27 85 29 38 12 88 43 136 86 65 58 81
70 90 70 5 0 7 -5 3 -12 -4 -6 -3 -8 4 -5 5 4 8 17 5 30 -4 22 -4 22 12 2 16
-19 16 -19 11 10 -5 28 -4 29 9 11 13 -17 15 97 15 932 -1 848 -2 952 -16 952
-8 0 -12 5 -9 10 4 6 10 8 14 6 4 -3 7 18 7 46 -1 32 -6 53 -14 56 -10 3 -10
7 0 20 7 10 8 14 4 10 -5 -4 -17 1 -27 13 -12 14 -18 16 -22 7 -4 -11 -6 -10
-6 0 -1 7 -5 11 -10 8 -5 -3 -15 2 -22 11 -12 14 -11 15 10 8 23 -7 23 -6 -5
22 -30 30 -47 36 -23 7 11 -14 10 -19 -8 -34 -12 -10 -19 -21 -15 -26 4 -5 -1
-2 -10 5 -23 17 -23 33 -2 29 10 -2 19 3 21 10 3 6 0 12 -7 12 -6 0 -8 5 -4
12 4 6 3 8 -4 4 -6 -3 -13 -2 -16 3 -4 5 1 11 9 13 10 2 6 7 -11 15 -22 10
-24 10 -13 -3 11 -13 9 -14 -13 -9 -15 4 -29 2 -32 -4 -10 -16 -26 -13 -26 4
0 8 5 14 11 13 6 -2 14 4 16 12 4 13 3 13 -6 0 -6 -8 -11 -11 -11 -6 0 5 -6 3
-14 -3 -10 -8 -20 -8 -42 4 -24 12 -76 15 -280 15 l-251 0 -34 -30z m698 -36
c15 -14 22 -23 15 -19 -7 4 -18 2 -25 -4 -9 -7 -16 -5 -25 10 -13 20 -4 26 16
9 7 -5 6 -2 -2 7 -12 13 -18 14 -30 3 -15 -12 -23 0 -9 13 12 13 32 7 60 -19z
m103 -69 c10 6 24 -14 26 -37 3 -36 4 -39 12 -34 5 3 8 -8 8 -24 0 -16 -6 -32
-13 -35 -8 -2 -11 -1 -8 4 3 5 -8 24 -24 42 -17 18 -28 36 -25 41 3 4 0 8 -6
8 -7 0 -9 8 -4 22 6 20 5 21 -10 9 -9 -8 -19 -11 -23 -7 -3 3 0 6 8 6 12 0 12
2 0 9 -7 5 -10 14 -7 20 5 8 15 5 33 -9 14 -11 29 -17 33 -15z m-1006 -159
c-3 -9 -10 -16 -15 -16 -5 0 -4 9 3 20 14 22 21 20 12 -4z m-28 -72 c-9 -8
-16 -11 -16 -4 0 15 24 40 28 29 2 -5 -4 -16 -12 -25z m-2761 -174 c3 -5 1
-10 -4 -10 -6 0 -11 5 -11 10 0 6 2 10 4 10 3 0 8 -4 11 -10z m-35 -34 c0 -3
-4 -8 -10 -11 -5 -3 -10 -1 -10 4 0 6 5 11 10 11 6 0 10 -2 10 -4z m0 -49 c0
-2 -10 -12 -22 -23 l-23 -19 19 23 c18 21 26 27 26 19z m30 -11 c0 -2 -7 -7
-16 -10 -8 -3 -12 -2 -9 4 6 10 25 14 25 6z m2047 -53 c2 -6 -7 -13 -20 -16
-12 -4 -42 -24 -66 -45 -42 -38 -58 -42 -93 -27 -10 4 -25 5 -33 2 -8 -4 -17
-2 -20 4 -4 5 -11 6 -17 3 -7 -4 -8 -2 -4 4 31 51 241 113 253 75z m-396 -110
c13 -16 12 -17 -3 -4 -17 13 -22 21 -14 21 2 0 10 -8 17 -17z m634 -103 c3 -5
1 -10 -4 -10 -6 0 -11 5 -11 10 0 6 2 10 4 10 3 0 8 -4 11 -10z m-1181 -178
c3 -5 -1 -9 -9 -9 -8 0 -12 4 -9 9 3 4 7 8 9 8 2 0 6 -4 9 -8z m51 -42 c-3 -5
-12 -10 -18 -10 -7 0 -6 4 3 10 19 12 23 12 15 0z m2069 -1646 c3 -8 2 -12 -4
-9 -6 3 -10 10 -10 16 0 14 7 11 14 -7z m-32 -2 c-7 -5 -11 -15 -9 -23 2 -8 2
-11 0 -6 -3 4 -18 -3 -35 -14 -27 -20 -30 -20 -27 -4 2 10 18 26 34 36 29 17
62 27 37 11z m-82 -61 c0 -5 -14 -17 -32 -25 -17 -9 -29 -13 -25 -10 4 4 1 14
-6 22 -10 13 -9 15 9 10 12 -3 28 -2 35 3 18 11 19 11 19 0z m-130 -246 l24
-25 -32 11 c-32 11 -38 19 -25 32 9 9 6 10 33 -18z m-300 -185 c12 -8 10 -10
-10 -11 -14 0 -36 -2 -50 -5 l-25 -4 25 15 c30 17 40 18 60 5z m7 -85 c0 -8
-4 -12 -9 -9 -5 3 -6 10 -3 15 9 13 12 11 12 -6z m78 -15 c-3 -5 -14 -10 -23
-9 -14 0 -13 2 3 9 27 11 27 11 20 0z m18 -15 c-3 -9 -8 -14 -10 -11 -3 3 -2
9 2 15 9 16 15 13 8 -4z m63 -27 c16 -18 28 -36 26 -40 -1 -5 2 -8 6 -8 4 0 8
-11 8 -24 0 -17 -4 -22 -15 -18 -9 3 -11 7 -4 9 7 3 9 11 6 19 -3 7 -10 11
-16 7 -6 -4 -8 0 -5 8 3 8 -3 23 -14 33 -18 20 -18 20 -16 -4 3 -19 -2 -24
-24 -25 -15 -1 -25 2 -22 7 3 4 0 8 -7 8 -7 0 -10 3 -6 6 3 3 12 2 19 -2 33
-21 38 -12 29 46 -1 3 -6 -2 -11 -10 -5 -8 -10 -10 -10 -4 0 12 10 24 20 24 4
0 20 -15 36 -32z m-1791 -18 c3 -5 1 -10 -4 -10 -6 0 -11 5 -11 10 0 6 2 10 4
10 3 0 8 -4 11 -10z m1455 -14 c0 -3 -4 -8 -10 -11 -5 -3 -10 -1 -10 4 0 6 5
11 10 11 6 0 10 -2 10 -4z m-1449 -29 c-10 -9 -11 -8 -5 6 3 10 9 15 12 12 3
-3 0 -11 -7 -18z m1529 -11 c0 -3 -4 -8 -10 -11 -5 -3 -10 -1 -10 4 0 6 5 11
10 11 6 0 10 -2 10 -4z m-1540 -26 c0 -5 -5 -10 -11 -10 -5 0 -7 5 -4 10 3 6
8 10 11 10 2 0 4 -4 4 -10z m1840 -16 c0 -8 -19 -13 -24 -6 -3 5 1 9 9 9 8 0
15 -2 15 -3z"/>
<path d="M3916 3852 c-3 -3 -1 -11 5 -19 6 -7 8 -13 4 -13 -12 0 17 -30 39
-41 18 -9 19 -8 6 3 -9 7 -15 26 -15 42 0 27 -23 44 -39 28z m30 -28 c0 -20
-11 -25 -11 -6 0 4 -3 12 -7 18 -4 6 -1 11 5 11 7 0 13 -11 13 -23z"/>
<path d="M205 3662 c-5 -4 -11 -14 -13 -22 -2 -12 1 -11 11 2 8 10 18 14 22
10 5 -4 5 -1 1 6 -8 14 -8 14 -21 4z"/>
<path d="M684 919 c1 -7 10 -13 19 -15 9 -1 15 2 11 7 -3 5 -9 7 -14 4 -4 -3
-11 0 -13 5 -3 6 -4 5 -3 -1z"/>
<path d="M703 872 c10 -10 14 -21 11 -24 -3 -3 0 -9 7 -14 8 -5 10 -3 4 6 -6
10 -4 12 10 6 13 -5 10 1 -9 19 -31 29 -47 34 -23 7z"/>
<path d="M735 820 c-3 -5 -2 -10 4 -10 5 0 13 5 16 10 3 6 2 10 -4 10 -5 0
-13 -4 -16 -10z"/>
<path d="M778 793 c49 -48 60 -54 68 -42 4 7 3 10 -3 6 -5 -3 -22 7 -37 24
-15 16 -32 29 -37 29 -5 0 -1 -8 9 -17z"/>
<path d="M796 747 c3 -10 9 -15 12 -12 3 3 0 11 -7 18 -10 9 -11 8 -5 -6z"/>
</g>
</svg>
